<svg viewBox="0 0 51 51" fill="none" xmlns="http://www.w3.org/2000/svg"><circle cx="25.9693" cy="25.1255" r="25.1255" fill="#7CB125"></circle><path d="M20.4453 37.1858V13.0653H24.0696C25.6839 13.0653 26.9701 13.1903 27.9283 13.4402C28.8969 13.6902 29.7144 14.112 30.381 14.7056C31.0579 15.3201 31.5943 16.0856 31.99 17.0021C32.3962 17.929 32.5993 18.8663 32.5993 19.8141C32.5993 21.5429 31.938 23.0062 30.6153 24.2039C31.8963 24.6413 32.9065 25.4068 33.646 26.5003C34.3959 27.5834 34.7708 28.8436 34.7708 30.2809C34.7708 32.1659 34.1042 33.7594 32.7712 35.0612C31.9692 35.8632 31.0683 36.4204 30.0685 36.7328C28.975 37.0348 27.6054 37.1858 25.9599 37.1858H20.4453ZM24.0853 23.4228H25.2257C26.5796 23.4228 27.569 23.1259 28.1939 22.5323C28.8292 21.9282 29.1468 21.043 29.1468 19.8765C29.1468 18.7413 28.824 17.8821 28.1783 17.2989C27.5325 16.7053 26.5952 16.4084 25.3663 16.4084H24.0853V23.4228ZM24.0853 33.7646H26.3348C27.9804 33.7646 29.1885 33.4417 29.9592 32.796C30.7715 32.0982 31.1777 31.213 31.1777 30.1403C31.1777 29.0988 30.7871 28.224 30.006 27.5158C29.2458 26.818 27.8866 26.4691 25.9287 26.4691H24.0853V33.7646Z" fill="white"></path></svg>