<svg viewBox="0 0 51 51" fill="none" xmlns="http://www.w3.org/2000/svg"><circle cx="25.813" cy="25.1255" r="25.1255" fill="#C7CB00"></circle><path d="M33.5966 14.7667V18.9223C31.569 17.2259 29.4712 16.3777 27.303 16.3777C24.9141 16.3777 22.9015 17.236 21.2654 18.9524C19.6192 20.6588 18.7961 22.7466 18.7961 25.2159C18.7961 27.6551 19.6192 29.7128 21.2654 31.3891C22.9115 33.0654 24.9291 33.9035 27.3181 33.9035C28.5527 33.9035 29.6016 33.7028 30.4649 33.3013C30.9467 33.1005 31.4436 32.8295 31.9555 32.4882C32.4774 32.1469 33.0245 31.7354 33.5966 31.2536V35.4844C31.5891 36.6187 29.4812 37.1858 27.2729 37.1858C23.9504 37.1858 21.1148 36.0265 18.766 33.7078C16.4272 31.369 15.2578 28.5484 15.2578 25.246C15.2578 22.2849 16.2365 19.645 18.1938 17.3263C20.6029 14.4856 23.7196 13.0653 27.5439 13.0653C29.6318 13.0653 31.6493 13.6324 33.5966 14.7667Z" fill="white"></path></svg>