<svg viewBox="0 0 51 51" fill="none" xmlns="http://www.w3.org/2000/svg"><circle cx="25.6636" cy="25.1255" r="25.1255" fill="#FFA101"></circle><path d="M18.1318 37.1858V13.0653H23.1934C25.62 13.0653 27.5363 13.3048 28.9423 13.7839C30.4525 14.2526 31.822 15.0493 33.0509 16.1741C35.5401 18.4445 36.7846 21.4283 36.7846 25.1256C36.7846 28.8332 35.488 31.8327 32.8947 34.1239C31.5929 35.2695 30.2285 36.0663 28.8017 36.5141C27.4686 36.9619 25.5784 37.1858 23.1309 37.1858H18.1318ZM21.7718 33.7646H23.4121C25.0472 33.7646 26.4063 33.5928 27.4895 33.2491C28.5726 32.8846 29.5516 32.3065 30.4264 31.515C32.2178 29.8799 33.1134 27.7501 33.1134 25.1256C33.1134 22.4802 32.2282 20.3348 30.4577 18.6893C28.8642 17.2208 26.5157 16.4865 23.4121 16.4865H21.7718V33.7646Z" fill="white"></path></svg>